# xmcd
#
# Track frame offsets:
# 200
# 10220
# 23857
# 35550
# 47260
# 60037
# 71097
# 84522
# 97555
# 109537
#
# Disc length: 1611 seconds
#
#
# Revision: 0
# Processed by: cddbd v1.5.2PL0 Copyright (c) Steve Scherf et al.
# Submitted via: Nero 7, 11, 10, 0 
#
DISCID=6506490a
DTITLE=Little Milton and Clayton Love - The Bobbin Blues Masters - Part 2
DYEAR=1994
DGENRE=Blues
TTITLE0=I'm Trying
TTITLE1=Let It Be Known
TTITLE2=Long Distance Operator
TTITLE3=My Baby Pleases Me
TTITLE4=My Mind Is Troubled
TTITLE5=Strange Dreams
TTITLE6=That Will Never Do
TTITLE7=Mistreated
TTITLE8=Unlimited Love
TTITLE9=Year After Year
EXTD=
EXTT0=I'm Trying
EXTT1=Let It Be Known
EXTT2=Long Distance Operator
EXTT3=My Baby Pleases Me
EXTT4=My Mind Is Troubled
EXTT5=Strange Dreams
EXTT6=That Will Never Do
EXTT7=Mistreated
EXTT8=Unlimited Love
EXTT9=Year After Year
PLAYORDER=
